<svg xmlns="http://www.w3.org/2000/svg" width="15" height="14" viewBox="0 0 15 14" fill="none">
  <path d="M7.50027 1.3125C6.51833 1.31229 5.55307 1.5663 4.69843 2.04981C3.8438 2.53333 3.1289 3.22987 2.62333 4.07165C2.11776 4.91342 1.83873 5.87176 1.81341 6.85336C1.7881 7.83497 2.01735 8.80641 2.47886 9.67313L1.85816 11.5352C1.80674 11.6894 1.79928 11.8549 1.83661 12.013C1.87394 12.1712 1.95458 12.3159 2.0695 12.4308C2.18441 12.5457 2.32907 12.6263 2.48724 12.6637C2.64541 12.701 2.81086 12.6935 2.96503 12.6421L4.82714 12.0214C5.5899 12.4271 6.43507 12.6537 7.29848 12.684C8.1619 12.7143 9.02087 12.5475 9.81019 12.1963C10.5995 11.845 11.2985 11.3186 11.8539 10.6569C12.4094 9.9952 12.8069 9.21566 13.0161 8.37743C13.2254 7.53921 13.2409 6.66433 13.0615 5.81921C12.8821 4.97409 12.5126 4.18093 11.9809 3.49995C11.4493 2.81897 10.7695 2.26807 9.99309 1.88905C9.21672 1.51002 8.36421 1.31285 7.50027 1.3125ZM7.50027 11.8125C6.65424 11.8131 5.82305 11.5903 5.09073 11.1666C5.03712 11.1355 4.9775 11.1162 4.91584 11.1099C4.85418 11.1036 4.79189 11.1104 4.73308 11.13L2.68777 11.8125L3.36972 9.76719C3.38938 9.70842 3.39632 9.64614 3.3901 9.58448C3.38388 9.52282 3.36463 9.46319 3.33362 9.40953C2.80314 8.49237 2.59015 7.42579 2.7277 6.37523C2.86525 5.32467 3.34565 4.34887 4.09438 3.5992C4.8431 2.84953 5.81829 2.3679 6.86868 2.22902C7.91906 2.09014 8.98592 2.30178 9.90374 2.83111C10.8216 3.36043 11.5391 4.17786 11.9449 5.15657C12.3508 6.13528 12.4223 7.22057 12.1484 8.24408C11.8745 9.26759 11.2705 10.1721 10.4301 10.8173C9.58964 11.4625 8.55979 11.8123 7.50027 11.8125Z" fill="#4F4F4F"/>
</svg>