<svg xmlns="http://www.w3.org/2000/svg" width="14" height="14" viewBox="0 0 14 14" fill="none">
  <g clip-path="url(#clip0_2492_58488)">
    <path d="M11.3308 2.67276C10.7631 2.09941 10.0876 1.64388 9.34333 1.33235C8.59901 1.02082 7.80047 0.859426 6.99359 0.85744C6.18671 0.855454 5.38739 1.01292 4.64155 1.32078C3.8957 1.62864 3.21804 2.08084 2.64749 2.65139C2.07693 3.22195 1.62474 3.89961 1.31687 4.64545C1.00901 5.39129 0.851548 6.19062 0.853534 6.9975C0.85552 7.80438 1.01691 8.60292 1.32845 9.34723C1.63998 10.0916 2.0955 10.767 2.66886 11.3347C3.2366 11.9081 3.91202 12.3636 4.65634 12.6751C5.40066 12.9867 6.1992 13.1481 7.00608 13.15C7.81296 13.152 8.61228 12.9946 9.35813 12.6867C10.104 12.3788 10.7816 11.9266 11.3522 11.3561C11.9227 10.7855 12.3749 10.1079 12.6828 9.36203C12.9907 8.61619 13.1481 7.81687 13.1461 7.00999C13.1441 6.2031 12.9828 5.40457 12.6712 4.66025C12.3597 3.91593 11.9042 3.2405 11.3308 2.67276ZM1.74983 7.00374C1.74963 6.53909 1.81124 6.07648 1.93304 5.62808C2.13374 6.06011 2.42523 6.43335 2.62347 6.87659C2.87968 7.44644 3.56765 7.28839 3.87144 7.78769C4.14105 8.23093 3.85312 8.79148 4.05491 9.25523C4.20148 9.59183 4.5471 9.66538 4.78554 9.91148C5.02917 10.1598 5.02398 10.4999 5.06116 10.8237C5.1031 11.2041 5.17116 11.5811 5.26487 11.9521C5.26487 11.9549 5.26487 11.9579 5.26706 11.9606C3.22093 11.242 1.74983 9.29159 1.74983 7.00374ZM6.99984 12.2537C6.70664 12.2537 6.41396 12.2292 6.12484 12.1805C6.12784 12.1064 6.12921 12.0372 6.13659 11.9891C6.20304 11.5543 6.42069 11.1291 6.71437 10.8037C7.00448 10.4827 7.40206 10.2656 7.64706 9.90136C7.88714 9.54589 7.95905 9.06737 7.86007 8.65202C7.71433 8.03843 6.88062 7.83362 6.43108 7.50085C6.17269 7.30944 5.94273 7.01358 5.60339 6.98952C5.44698 6.97858 5.31601 7.01222 5.16097 6.9723C5.01878 6.93538 4.90722 6.85882 4.75573 6.87878C4.47273 6.91597 4.29417 7.21839 3.99011 7.17737C3.70163 7.13882 3.40441 6.80112 3.33878 6.52632C3.25456 6.17304 3.53401 6.05847 3.83343 6.02702C3.95839 6.0139 4.09866 5.99968 4.2187 6.04562C4.37675 6.10413 4.4514 6.2589 4.59331 6.3371C4.85937 6.48312 4.91323 6.24987 4.87249 6.01362C4.81151 5.6598 4.74042 5.51569 5.05597 5.27206C5.27472 5.10417 5.46175 4.98276 5.42675 4.68116C5.40597 4.50398 5.3089 4.42386 5.39941 4.24749C5.46804 4.11323 5.65644 3.9921 5.77921 3.91198C6.09612 3.70526 7.13683 3.72058 6.71163 3.14198C6.58667 2.97218 6.35616 2.66866 6.13741 2.6271C5.86398 2.57542 5.74257 2.88058 5.55198 3.01511C5.35511 3.15429 4.97175 3.31234 4.7746 3.09714C4.50937 2.80757 4.95042 2.71269 5.04804 2.51034C5.09315 2.41601 5.04804 2.28503 4.97202 2.16171C5.07064 2.12015 5.1709 2.08159 5.2728 2.04605C5.33667 2.09321 5.41242 2.12162 5.49155 2.12808C5.67448 2.14011 5.84702 2.04112 6.00671 2.16581C6.1839 2.30253 6.31159 2.47534 6.54675 2.518C6.77425 2.55929 7.01515 2.42667 7.07148 2.1937C7.10566 2.05206 7.07148 1.90249 7.03866 1.7562C8.06132 1.76209 9.05971 2.06835 9.90976 2.63694C9.85507 2.61616 9.78972 2.61862 9.70905 2.65609C9.54308 2.73319 9.30792 2.92952 9.28851 3.12421C9.26636 3.34515 9.5923 3.37632 9.74706 3.37632C9.97948 3.37632 10.2149 3.27241 10.14 3.0039C10.1075 2.88741 10.0632 2.76628 9.99179 2.693C10.1634 2.81203 10.3277 2.94114 10.484 3.07964C10.4815 3.0821 10.4791 3.08429 10.4766 3.08702C10.3191 3.25109 10.1362 3.38097 10.0284 3.58058C9.95241 3.72112 9.86683 3.78784 9.71288 3.82421C9.62812 3.84417 9.53132 3.85155 9.46023 3.90843C9.26226 4.06429 9.37491 4.4389 9.56249 4.55128C9.79956 4.69319 10.1512 4.62648 10.33 4.42386C10.4698 4.26526 10.5521 3.98991 10.8034 3.99019C10.914 3.98996 11.0203 4.03327 11.0992 4.11077C11.2031 4.21851 11.1826 4.31913 11.2048 4.45366C11.2439 4.69265 11.4547 4.56304 11.5829 4.44245C11.6764 4.60881 11.7607 4.78015 11.8356 4.95569C11.6945 5.15886 11.5824 5.38034 11.243 5.14355C11.0399 5.00163 10.9149 4.79573 10.6598 4.73175C10.4369 4.67706 10.2086 4.73394 9.98851 4.77194C9.73831 4.81542 9.44163 4.83456 9.25187 5.02405C9.06839 5.20671 8.97132 5.45116 8.77608 5.63464C8.39847 5.99011 8.23905 6.37812 8.48351 6.88069C8.71866 7.36386 9.21058 7.62608 9.74132 7.59163C10.2628 7.55691 10.8044 7.25448 10.7894 8.01218C10.7839 8.28042 10.84 8.46609 10.9223 8.71519C10.9986 8.94487 10.9934 9.16745 11.0109 9.40452C11.0275 9.68213 11.0709 9.95748 11.1405 10.2267C10.6504 10.8578 10.0225 11.3685 9.3049 11.7198C8.58727 12.0711 7.79884 12.2537 6.99984 12.2537Z" fill="#B0B0B0"/>
  </g>
  <defs>
    <clipPath id="clip0_2492_58488">
      <rect width="14" height="14" fill="white"/>
    </clipPath>
  </defs>
</svg>