<svg xmlns="http://www.w3.org/2000/svg" width="14" height="15" viewBox="0 0 14 15" fill="none">
  <g clip-path="url(#clip0_2492_59086)">
    <path d="M12.4315 2.06858C12.3215 1.95862 12.1841 1.87998 12.0336 1.84077C11.8831 1.80155 11.7248 1.80317 11.5751 1.84546H11.5669L1.07019 5.03046C0.899781 5.07957 0.748318 5.1793 0.635872 5.31644C0.523426 5.45358 0.455306 5.62165 0.440539 5.79838C0.425772 5.97511 0.465055 6.15215 0.553183 6.30605C0.641311 6.45995 0.774122 6.58343 0.934018 6.66014L5.57808 8.92202L7.83667 13.5633C7.90692 13.7133 8.01861 13.8399 8.15854 13.9284C8.29848 14.0169 8.46081 14.0635 8.62636 14.0626C8.65152 14.0626 8.67667 14.0616 8.70183 14.0594C8.87842 14.0451 9.04641 13.9771 9.18326 13.8646C9.32011 13.7521 9.41928 13.6004 9.46745 13.4299L12.6503 2.93319C12.6503 2.93046 12.6503 2.92772 12.6503 2.92499C12.6931 2.77567 12.6954 2.61764 12.657 2.46713C12.6185 2.31663 12.5407 2.17906 12.4315 2.06858ZM8.63128 13.1794L8.62855 13.1871V13.1833L6.43777 8.68249L9.06277 6.05749C9.14135 5.97477 9.18451 5.86463 9.18305 5.75055C9.18159 5.63647 9.13562 5.52747 9.05495 5.44679C8.97427 5.36612 8.86527 5.32015 8.75119 5.31869C8.63711 5.31723 8.52697 5.36039 8.44425 5.43897L5.81925 8.06397L1.31683 5.87319H1.313H1.32066L11.8125 2.68765L8.63128 13.1794Z" fill="#4F4F4F"/>
  </g>
  <defs>
    <clipPath id="clip0_2492_59086">
      <rect width="14" height="14" fill="white" transform="translate(0 0.5)"/>
    </clipPath>
  </defs>
</svg>