<svg xmlns="http://www.w3.org/2000/svg" width="14" height="14" viewBox="0 0 14 14" fill="none">
  <path d="M12.7969 4.38156C12.6737 4.24196 12.5222 4.13016 12.3525 4.0536C12.1828 3.97704 11.9987 3.93746 11.8125 3.9375H8.75V3.0625C8.75 2.48234 8.51953 1.92594 8.1093 1.5157C7.69906 1.10547 7.14266 0.875 6.5625 0.875C6.48122 0.874942 6.40153 0.897526 6.33237 0.940221C6.26321 0.982916 6.20731 1.04403 6.17094 1.11672L4.10484 5.25H1.75C1.51794 5.25 1.29538 5.34219 1.13128 5.50628C0.967187 5.67038 0.875 5.89294 0.875 6.125V10.9375C0.875 11.1696 0.967187 11.3921 1.13128 11.5562C1.29538 11.7203 1.51794 11.8125 1.75 11.8125H11.1563C11.476 11.8126 11.7848 11.696 12.0247 11.4845C12.2645 11.2731 12.4189 10.9813 12.4589 10.6641L13.1152 5.41406C13.1384 5.22923 13.1221 5.04157 13.0672 4.86354C13.0123 4.68552 12.9202 4.52122 12.7969 4.38156ZM1.75 6.125H3.9375V10.9375H1.75V6.125ZM12.2467 5.30469L11.5905 10.5547C11.5771 10.6604 11.5257 10.7577 11.4457 10.8282C11.3658 10.8987 11.2628 10.9375 11.1563 10.9375H4.8125V5.79086L6.82008 1.77516C7.11763 1.83471 7.38535 1.99552 7.57768 2.23023C7.77002 2.46495 7.87509 2.75905 7.875 3.0625V4.375C7.875 4.49103 7.92109 4.60231 8.00314 4.68436C8.08519 4.76641 8.19647 4.8125 8.3125 4.8125H11.8125C11.8746 4.81248 11.936 4.82567 11.9926 4.8512C12.0491 4.87673 12.0997 4.91401 12.1407 4.96056C12.1818 5.00712 12.2125 5.06188 12.2308 5.12122C12.249 5.18055 12.2545 5.24309 12.2467 5.30469Z" fill="#4F4F4F"/>
</svg>