<svg xmlns="http://www.w3.org/2000/svg" width="19" height="19" viewBox="0 0 19 19" fill="none">
<path d="M15.5228 11.463L9.89779 5.83805C9.84555 5.78575 9.78352 5.74426 9.71523 5.71595C9.64694 5.68764 9.57375 5.67307 9.49983 5.67307C9.4259 5.67307 9.35271 5.68764 9.28442 5.71595C9.21613 5.74426 9.1541 5.78575 9.10186 5.83805L3.47686 11.463C3.37131 11.5686 3.31201 11.7117 3.31201 11.861C3.31201 12.0103 3.37131 12.1534 3.47686 12.259C3.5824 12.3645 3.72556 12.4238 3.87482 12.4238C4.02409 12.4238 4.16725 12.3645 4.27279 12.259L9.49983 7.03125L14.7269 12.259C14.7791 12.3112 14.8412 12.3527 14.9094 12.381C14.9777 12.4093 15.0509 12.4238 15.1248 12.4238C15.1987 12.4238 15.2719 12.4093 15.3402 12.381C15.4085 12.3527 15.4705 12.3112 15.5228 12.259C15.5751 12.2067 15.6165 12.1447 15.6448 12.0764C15.6731 12.0081 15.6876 11.9349 15.6876 11.861C15.6876 11.7871 15.6731 11.7139 15.6448 11.6456C15.6165 11.5774 15.5751 11.5153 15.5228 11.463Z" fill="#2B1F0A"/>
</svg>
