<svg xmlns="http://www.w3.org/2000/svg" width="20" height="20" viewBox="0 0 20 20" fill="none">
<path fill-rule="evenodd" clip-rule="evenodd" d="M15.5916 14.6373C16.2557 13.9731 16.6288 13.0723 16.6288 12.1331C16.6288 11.1939 16.2557 10.2931 15.5916 9.62894L10.1416 4.17894C9.98526 4.02269 9.89737 3.81071 9.89729 3.58966C9.89722 3.3686 9.98496 3.15656 10.1412 3.00019C10.2975 2.84383 10.5094 2.75594 10.7305 2.75586C10.9516 2.75578 11.1636 2.84352 11.32 2.99978L16.77 8.44978C17.7468 9.42644 18.2957 10.7512 18.2959 12.1325C18.296 13.5139 17.7475 14.8387 16.7708 15.8156C15.7941 16.7925 14.4694 17.3414 13.0881 17.3415C11.7067 17.3417 10.3818 16.7931 9.40496 15.8164L2.77663 9.18728C2.07325 8.48379 1.67814 7.5297 1.67822 6.5349C1.6783 5.5401 2.07356 4.58607 2.77705 3.88269C3.48053 3.17932 4.43462 2.78421 5.42942 2.78429C6.42423 2.78437 7.37825 3.17962 8.08163 3.88311L14.7091 10.5106C15.1288 10.9428 15.3615 11.5228 15.357 12.1252C15.3526 12.7276 15.1112 13.3041 14.6852 13.73C14.2592 14.1559 13.6826 14.3971 13.0802 14.4014C12.4778 14.4058 11.8979 14.1729 11.4658 13.7531L5.42746 7.71394C5.2711 7.55769 5.18321 7.34571 5.18313 7.12466C5.18305 6.9036 5.27079 6.69156 5.42705 6.5352C5.5833 6.37883 5.79528 6.29094 6.01634 6.29086C6.23739 6.29078 6.44943 6.37852 6.6058 6.53478L12.645 12.5739C12.7623 12.6914 12.9215 12.7575 13.0876 12.7575C13.2536 12.7576 13.4129 12.6917 13.5304 12.5744C13.6478 12.457 13.7139 12.2978 13.714 12.1317C13.714 11.9657 13.6482 11.8064 13.5308 11.6889L6.9033 5.06144C6.70982 4.86785 6.4801 4.71427 6.22726 4.60946C5.97442 4.50464 5.70342 4.45066 5.42972 4.45058C5.15602 4.4505 4.88498 4.50434 4.63209 4.60901C4.37919 4.71367 4.14939 4.86713 3.9558 5.06061C3.56482 5.45136 3.34509 5.98143 3.34493 6.53419C3.34478 7.08695 3.56421 7.61714 3.95496 8.00811L10.5833 14.6364C11.2475 15.3005 12.1482 15.6736 13.0875 15.6736C14.0267 15.6736 14.9275 15.3005 15.5916 14.6364V14.6373Z" fill="#4F4F4F"/>
</svg>