<svg xmlns="http://www.w3.org/2000/svg" width="25" height="24" viewBox="0 0 25 24" fill="none">
  <path d="M12.5 3C10.72 3 8.97991 3.52784 7.49987 4.51677C6.01983 5.50571 4.86628 6.91131 4.18509 8.55585C3.5039 10.2004 3.32567 12.01 3.67294 13.7558C4.0202 15.5016 4.87737 17.1053 6.13604 18.364C7.39471 19.6226 8.99836 20.4798 10.7442 20.8271C12.49 21.1743 14.2996 20.9961 15.9442 20.3149C17.5887 19.6337 18.9943 18.4802 19.9832 17.0001C20.9722 15.5201 21.5 13.78 21.5 12C21.4975 9.61382 20.5485 7.3261 18.8612 5.63882C17.1739 3.95154 14.8862 3.00252 12.5 3ZM16.4513 10.4129L11.6052 15.259C11.5409 15.3234 11.4645 15.3745 11.3805 15.4093C11.2965 15.4441 11.2064 15.4621 11.1154 15.4621C11.0244 15.4621 10.9343 15.4441 10.8503 15.4093C10.7662 15.3745 10.6899 15.3234 10.6256 15.259L8.54866 13.1821C8.41875 13.0522 8.34577 12.876 8.34577 12.6923C8.34577 12.5086 8.41875 12.3324 8.54866 12.2025C8.67856 12.0726 8.85475 11.9996 9.03846 11.9996C9.22218 11.9996 9.39837 12.0726 9.52827 12.2025L11.1154 13.7905L15.4717 9.43327C15.5361 9.36895 15.6124 9.31792 15.6965 9.28311C15.7805 9.2483 15.8706 9.23038 15.9615 9.23038C16.0525 9.23038 16.1426 9.2483 16.2266 9.28311C16.3107 9.31792 16.387 9.36895 16.4513 9.43327C16.5157 9.49759 16.5667 9.57395 16.6015 9.65799C16.6363 9.74203 16.6542 9.83211 16.6542 9.92308C16.6542 10.014 16.6363 10.1041 16.6015 10.1882C16.5667 10.2722 16.5157 10.3486 16.4513 10.4129Z" fill="#52C41A"/>
</svg>