<svg xmlns="http://www.w3.org/2000/svg" width="28" height="28" viewBox="0 0 28 28" fill="none">
<g clip-path="url(#clip0_2360_12195)">
<path d="M28 14C28 6.26808 21.7319 0 14 0C6.26808 0 0 6.26808 0 14C0 20.5654 4.52032 26.0747 10.6182 27.5878V18.2784H7.73136V14H10.6182V12.1565C10.6182 7.39144 12.7747 5.1828 17.453 5.1828C18.34 5.1828 19.8705 5.35696 20.4966 5.53056V9.40856C20.1662 9.37384 19.5922 9.35648 18.8793 9.35648C16.5838 9.35648 15.6968 10.2262 15.6968 12.4869V14H20.2698L19.4841 18.2784H15.6968V27.8975C22.629 27.0603 28.0006 21.1579 28.0006 14H28Z" fill="#0866FF"/>
<path d="M19.4834 18.2792L20.2691 14.0008H15.6962V12.4877C15.6962 10.227 16.5832 9.35727 18.8786 9.35727C19.5915 9.35727 20.1655 9.37463 20.4959 9.40935V5.53135C19.8698 5.35719 18.3394 5.18359 17.4523 5.18359C12.7741 5.18359 10.6175 7.39223 10.6175 12.1573V14.0008H7.73071V18.2792H10.6175V27.5886C11.7006 27.8574 12.8334 28.0008 13.9994 28.0008C14.5734 28.0008 15.1395 27.9655 15.6956 27.8983V18.2792H19.4829H19.4834Z" fill="white"/>
</g>
<defs>
<clipPath id="clip0_2360_12195">
<rect width="28" height="28" fill="white"/>
</clipPath>
</defs>
</svg>