<svg xmlns="http://www.w3.org/2000/svg" width="17" height="16" viewBox="0 0 17 16" fill="none">
  <path d="M7.33185 9.48797C7.288 9.42208 7.22855 9.36804 7.15878 9.33066C7.08901 9.29329 7.01108 9.27373 6.93193 9.27373C6.85278 9.27373 6.77485 9.29329 6.70508 9.33066C6.63531 9.36804 6.57586 9.42208 6.532 9.48797L5.27999 11.3669L4.69392 10.4554C4.65042 10.3877 4.59062 10.332 4.52001 10.2934C4.4494 10.2549 4.37024 10.2347 4.28979 10.2347C4.20934 10.2347 4.13017 10.2549 4.05956 10.2934C3.98895 10.332 3.92916 10.3877 3.88566 10.4554L1.72391 13.8181C1.67719 13.8907 1.65089 13.9745 1.64777 14.0607C1.64466 14.147 1.66483 14.2325 1.70618 14.3082C1.74754 14.384 1.80853 14.4472 1.88277 14.4913C1.957 14.5353 2.04173 14.5585 2.12804 14.5585H9.81426C9.90126 14.5585 9.98663 14.535 10.0613 14.4903C10.1359 14.4456 10.197 14.3815 10.2381 14.3048C10.2791 14.2281 10.2986 14.1417 10.2944 14.0548C10.2902 13.968 10.2625 13.8838 10.2142 13.8115L7.33185 9.48797ZM3.00775 13.5977L4.28979 11.6035L4.86806 12.5042C4.91119 12.5714 4.97036 12.6267 5.04024 12.6652C5.11012 12.7038 5.1885 12.7243 5.2683 12.725C5.34809 12.7256 5.4268 12.7064 5.4973 12.669C5.5678 12.6316 5.62788 12.5772 5.67211 12.5108L6.93313 10.6211L8.91654 13.5977H3.00775ZM13.5163 5.5716L10.1535 2.20887C10.0635 2.11895 9.9415 2.06842 9.81426 2.06836H4.04959C3.79478 2.06836 3.5504 2.16958 3.37022 2.34976C3.19004 2.52995 3.08882 2.77432 3.08882 3.02914V8.31342C3.08882 8.44083 3.13943 8.56301 3.22952 8.65311C3.31961 8.7432 3.4418 8.79381 3.5692 8.79381C3.69661 8.79381 3.8188 8.7432 3.90889 8.65311C3.99898 8.56301 4.04959 8.44083 4.04959 8.31342V3.02914H9.33388V5.91147C9.33388 6.03888 9.38449 6.16107 9.47458 6.25116C9.56467 6.34125 9.68686 6.39186 9.81426 6.39186H12.6966V13.5977H12.2162C12.0888 13.5977 11.9666 13.6483 11.8765 13.7384C11.7864 13.8285 11.7358 13.9507 11.7358 14.0781C11.7358 14.2055 11.7864 14.3277 11.8765 14.4178C11.9666 14.5079 12.0888 14.5585 12.2162 14.5585H12.6966C12.9514 14.5585 13.1958 14.4573 13.376 14.2771C13.5562 14.0969 13.6574 13.8525 13.6574 13.5977V5.91147C13.6574 5.84837 13.645 5.78587 13.6209 5.72756C13.5968 5.66924 13.5615 5.61624 13.5169 5.5716H13.5163ZM10.2947 3.70829L12.0174 5.43108H10.2947V3.70829Z" fill="#FFAB03"/>
</svg>