<svg xmlns="http://www.w3.org/2000/svg" width="18" height="18" viewBox="0 0 18 18" fill="none">
  <path d="M9 2.25C7.66498 2.25 6.35993 2.64588 5.2499 3.38758C4.13987 4.12928 3.27471 5.18348 2.76382 6.41689C2.25292 7.65029 2.11925 9.00749 2.3797 10.3169C2.64015 11.6262 3.28303 12.829 4.22703 13.773C5.17104 14.717 6.37377 15.3598 7.68314 15.6203C8.99251 15.8807 10.3497 15.7471 11.5831 15.2362C12.8165 14.7253 13.8707 13.8601 14.6124 12.7501C15.3541 11.6401 15.75 10.335 15.75 9C15.7481 7.21037 15.0363 5.49458 13.7709 4.22912C12.5054 2.96366 10.7896 2.25189 9 2.25ZM9 14.7115C7.87037 14.7115 6.7661 14.3766 5.82684 13.749C4.88758 13.1214 4.15552 12.2294 3.72323 11.1857C3.29094 10.1421 3.17783 8.99366 3.39821 7.88573C3.61859 6.7778 4.16256 5.7601 4.96133 4.96133C5.76011 4.16256 6.77781 3.61859 7.88574 3.39821C8.99367 3.17783 10.1421 3.29093 11.1857 3.72323C12.2294 4.15552 13.1214 4.88758 13.749 5.82684C14.3766 6.7661 14.7115 7.87036 14.7115 9C14.7098 10.5143 14.1075 11.966 13.0368 13.0368C11.966 14.1075 10.5143 14.7098 9 14.7115ZM10.0385 12.1154C10.0385 12.2531 9.98376 12.3852 9.88638 12.4825C9.78901 12.5799 9.65694 12.6346 9.51923 12.6346C9.24382 12.6346 8.97968 12.5252 8.78493 12.3305C8.59018 12.1357 8.48077 11.8716 8.48077 11.5962V9C8.34306 9 8.21099 8.94529 8.11362 8.84792C8.01624 8.75054 7.96154 8.61848 7.96154 8.48077C7.96154 8.34306 8.01624 8.21099 8.11362 8.11362C8.21099 8.01624 8.34306 7.96154 8.48077 7.96154C8.75619 7.96154 9.02032 8.07095 9.21507 8.2657C9.40982 8.46045 9.51923 8.72458 9.51923 9V11.5962C9.65694 11.5962 9.78901 11.6509 9.88638 11.7482C9.98376 11.8456 10.0385 11.9777 10.0385 12.1154ZM7.96154 6.14423C7.96154 5.99019 8.00722 5.83961 8.0928 5.71153C8.17838 5.58345 8.30002 5.48362 8.44233 5.42467C8.58465 5.36572 8.74125 5.3503 8.89233 5.38035C9.04341 5.4104 9.18219 5.48458 9.29111 5.5935C9.40004 5.70243 9.47422 5.8412 9.50427 5.99228C9.53432 6.14337 9.51889 6.29997 9.45995 6.44228C9.401 6.5846 9.30117 6.70624 9.17309 6.79182C9.04501 6.8774 8.89443 6.92308 8.74039 6.92308C8.53382 6.92308 8.33572 6.84102 8.18966 6.69496C8.0436 6.5489 7.96154 6.35079 7.96154 6.14423Z" fill="#757575"/>
</svg>