<svg xmlns="http://www.w3.org/2000/svg" width="29" height="28" viewBox="0 0 29 28" fill="none">
  <g clip-path="url(#clip0_2360_12220)">
    <path d="M22.1875 0H7.3125C3.68813 0 0.75 2.93813 0.75 6.5625V21.4375C0.75 25.0619 3.68813 28 7.3125 28H22.1875C25.8119 28 28.75 25.0619 28.75 21.4375V6.5625C28.75 2.93813 25.8119 0 22.1875 0Z" fill="url(#paint0_radial_2360_12220)"/>
    <path d="M22.1875 0H7.3125C3.68813 0 0.75 2.93813 0.75 6.5625V21.4375C0.75 25.0619 3.68813 28 7.3125 28H22.1875C25.8119 28 28.75 25.0619 28.75 21.4375V6.5625C28.75 2.93813 25.8119 0 22.1875 0Z" fill="url(#paint1_radial_2360_12220)"/>
    <path d="M14.751 3.0625C11.7806 3.0625 11.4077 3.07552 10.2411 3.12856C9.07672 3.18194 8.28189 3.36623 7.58648 3.63672C6.86702 3.91606 6.25681 4.2898 5.64891 4.89792C5.04045 5.50594 4.66672 6.11614 4.3865 6.83528C4.11525 7.53091 3.93073 8.32606 3.87834 9.48992C3.82617 10.6566 3.8125 11.0296 3.8125 14.0001C3.8125 16.9706 3.82563 17.3423 3.87856 18.5089C3.93216 19.6733 4.11645 20.4681 4.38672 21.1635C4.66628 21.883 5.04002 22.4932 5.64814 23.1011C6.25594 23.7095 6.86614 24.0842 7.58506 24.3635C8.28102 24.634 9.07595 24.8183 10.2401 24.8717C11.4068 24.9247 11.7794 24.9377 14.7497 24.9377C17.7204 24.9377 18.0921 24.9247 19.2587 24.8717C20.4231 24.8183 21.2188 24.634 21.9147 24.3635C22.6339 24.0842 23.2432 23.7095 23.8509 23.1011C24.4593 22.4932 24.833 21.883 25.1133 21.1638C25.3821 20.4681 25.5667 19.6731 25.6214 18.5091C25.6738 17.3425 25.6875 16.9706 25.6875 14.0001C25.6875 11.0296 25.6738 10.6568 25.6214 9.49014C25.5667 8.32573 25.3821 7.53102 25.1133 6.83561C24.833 6.11614 24.4593 5.50594 23.8509 4.89792C23.2425 4.28958 22.6341 3.91584 21.9141 3.63683C21.2168 3.36623 20.4215 3.18183 19.2571 3.12856C18.0904 3.07552 17.719 3.0625 14.7476 3.0625H14.751ZM13.7698 5.03355C14.061 5.03311 14.386 5.03355 14.751 5.03355C17.6714 5.03355 18.0175 5.04405 19.1707 5.09644C20.2371 5.14522 20.8159 5.32339 21.2015 5.47312C21.7119 5.67131 22.0758 5.90833 22.4584 6.29125C22.8412 6.67406 23.0781 7.03861 23.2769 7.54906C23.4266 7.93406 23.605 8.51288 23.6536 9.57928C23.706 10.7323 23.7173 11.0786 23.7173 13.9976C23.7173 16.9166 23.706 17.263 23.6536 18.4159C23.6048 19.4823 23.4266 20.0611 23.2769 20.4462C23.0787 20.9567 22.8412 21.3201 22.4584 21.7027C22.0756 22.0855 21.7122 22.3225 21.2015 22.5208C20.8164 22.6711 20.2371 22.8489 19.1707 22.8977C18.0177 22.95 17.6714 22.9614 14.751 22.9614C11.8305 22.9614 11.4843 22.95 10.3314 22.8977C9.26495 22.8484 8.68614 22.6703 8.30027 22.5205C7.78992 22.3222 7.42527 22.0853 7.04245 21.7025C6.65964 21.3197 6.42273 20.956 6.224 20.4454C6.07427 20.0602 5.89587 19.4814 5.84731 18.415C5.79492 17.262 5.78442 16.9157 5.78442 13.9949C5.78442 11.074 5.79492 10.7296 5.84731 9.57655C5.89609 8.51014 6.07427 7.93133 6.224 7.54578C6.4223 7.03533 6.65964 6.67078 7.04256 6.28797C7.42548 5.90516 7.78992 5.66814 8.30037 5.46952C8.68592 5.31912 9.26495 5.14139 10.3314 5.09239C11.3403 5.04678 11.7314 5.03311 13.7698 5.03081V5.03355ZM20.5894 6.84961C19.8648 6.84961 19.2769 7.43695 19.2769 8.16167C19.2769 8.88628 19.8648 9.47417 20.5894 9.47417C21.314 9.47417 21.9019 8.88628 21.9019 8.16167C21.9019 7.43706 21.314 6.84917 20.5894 6.84917V6.84961ZM14.751 8.38316C11.6491 8.38316 9.13414 10.8981 9.13414 14.0001C9.13414 17.1021 11.6491 19.6159 14.751 19.6159C17.853 19.6159 20.3671 17.1021 20.3671 14.0001C20.3671 10.8982 17.8528 8.38316 14.7508 8.38316H14.751ZM14.751 10.3542C16.7645 10.3542 18.3969 11.9864 18.3969 14.0001C18.3969 16.0136 16.7645 17.646 14.751 17.646C12.7375 17.646 11.1052 16.0136 11.1052 14.0001C11.1052 11.9864 12.7374 10.3542 14.751 10.3542Z" fill="white"/>
  </g>
  <defs>
    <radialGradient id="paint0_radial_2360_12220" cx="0" cy="0" r="1" gradientUnits="userSpaceOnUse" gradientTransform="translate(8.1875 30.1565) rotate(-90) scale(27.7501 25.8098)">
      <stop stop-color="#FFDD55"/>
      <stop offset="0.1" stop-color="#FFDD55"/>
      <stop offset="0.5" stop-color="#FF543E"/>
      <stop offset="1" stop-color="#C837AB"/>
    </radialGradient>
    <radialGradient id="paint1_radial_2360_12220" cx="0" cy="0" r="1" gradientUnits="userSpaceOnUse" gradientTransform="translate(-3.94011 2.01698) rotate(78.681) scale(12.4044 51.1315)">
      <stop stop-color="#3771C8"/>
      <stop offset="0.128" stop-color="#3771C8"/>
      <stop offset="1" stop-color="#6600FF" stop-opacity="0"/>
    </radialGradient>
    <clipPath id="clip0_2360_12220">
      <rect width="28" height="28" fill="white" transform="translate(0.75)"/>
    </clipPath>
  </defs>
</svg>