<svg xmlns="http://www.w3.org/2000/svg" width="24" height="24" viewBox="0 0 24 24" fill="none">
  <path d="M21.5 12.1113C21.5 12.3102 21.421 12.501 21.2803 12.6417C21.1397 12.7823 20.9489 12.8613 20.75 12.8613H13.25V20.3613C13.25 20.5602 13.171 20.751 13.0303 20.8917C12.8897 21.0323 12.6989 21.1113 12.5 21.1113C12.3011 21.1113 12.1103 21.0323 11.9697 20.8917C11.829 20.751 11.75 20.5602 11.75 20.3613V12.8613H4.25C4.05109 12.8613 3.86032 12.7823 3.71967 12.6417C3.57902 12.501 3.5 12.3102 3.5 12.1113C3.5 11.9124 3.57902 11.7217 3.71967 11.581C3.86032 11.4403 4.05109 11.3613 4.25 11.3613H11.75V3.86133C11.75 3.66242 11.829 3.47165 11.9697 3.331C12.1103 3.19035 12.3011 3.11133 12.5 3.11133C12.6989 3.11133 12.8897 3.19035 13.0303 3.331C13.171 3.47165 13.25 3.66242 13.25 3.86133V11.3613H20.75C20.9489 11.3613 21.1397 11.4403 21.2803 11.581C21.421 11.7217 21.5 11.9124 21.5 12.1113Z" fill="#4F4F4F"/>
</svg>