<svg xmlns="http://www.w3.org/2000/svg" width="24" height="25" viewBox="0 0 24 25" fill="none">
  <path d="M20.5941 8.65512L16.1339 4.19493C15.8735 3.93605 15.5215 3.79023 15.1543 3.78906H8.84567C8.47846 3.79023 8.1265 3.93605 7.86606 4.19493L3.40587 8.65512C3.14699 8.91556 3.00117 9.26752 3 9.63474V15.9434C3.00117 16.3106 3.14699 16.6626 3.40587 16.923L7.86606 21.3832C8.1265 21.6421 8.47846 21.7879 8.84567 21.7891H15.1543C15.5215 21.7879 15.8735 21.6421 16.1339 21.3832L20.5941 16.923C20.853 16.6626 20.9988 16.3106 21 15.9434V9.63474C20.9988 9.26752 20.853 8.91556 20.5941 8.65512ZM11.3077 8.63522C11.3077 8.4516 11.3806 8.27551 11.5105 8.14568C11.6403 8.01585 11.8164 7.94291 12 7.94291C12.1836 7.94291 12.3597 8.01585 12.4895 8.14568C12.6194 8.27551 12.6923 8.4516 12.6923 8.63522V13.4814C12.6923 13.665 12.6194 13.8411 12.4895 13.9709C12.3597 14.1007 12.1836 14.1737 12 14.1737C11.8164 14.1737 11.6403 14.1007 11.5105 13.9709C11.3806 13.8411 11.3077 13.665 11.3077 13.4814V8.63522ZM12 17.6352C11.7946 17.6352 11.5938 17.5743 11.4231 17.4602C11.2523 17.3461 11.1192 17.1839 11.0406 16.9942C10.962 16.8044 10.9414 16.5956 10.9815 16.3942C11.0216 16.1927 11.1205 16.0077 11.2657 15.8625C11.4109 15.7172 11.596 15.6183 11.7974 15.5782C11.9988 15.5382 12.2076 15.5587 12.3974 15.6373C12.5872 15.7159 12.7493 15.849 12.8634 16.0198C12.9776 16.1906 13.0385 16.3914 13.0385 16.5968C13.0385 16.8722 12.9291 17.1363 12.7343 17.3311C12.5396 17.5258 12.2754 17.6352 12 17.6352Z" fill="#FF2D38"/>
</svg>