<svg xmlns="http://www.w3.org/2000/svg" width="24" height="24" viewBox="0 0 24 24" fill="none">
  <path d="M19.7397 6.14613H16.2217V5.44017C16.2217 4.87846 15.9993 4.33977 15.6034 3.94258C15.2076 3.5454 14.6707 3.32227 14.1108 3.32227H9.88916C9.32933 3.32227 8.79243 3.5454 8.39657 3.94258C8.00071 4.33977 7.77832 4.87846 7.77832 5.44017V6.14613H4.26025C4.07364 6.14613 3.89468 6.22051 3.76272 6.3529C3.63077 6.4853 3.55664 6.66486 3.55664 6.8521C3.55664 7.03933 3.63077 7.2189 3.76272 7.35129C3.89468 7.48369 4.07364 7.55806 4.26025 7.55806H4.96387V20.2655C4.96387 20.6399 5.11213 20.9991 5.37603 21.2638C5.63994 21.5286 5.99787 21.6774 6.37109 21.6774H17.6289C18.0021 21.6774 18.3601 21.5286 18.624 21.2638C18.8879 20.9991 19.0361 20.6399 19.0361 20.2655V7.55806H19.7397C19.9264 7.55806 20.1053 7.48369 20.2373 7.35129C20.3692 7.2189 20.4434 7.03933 20.4434 6.8521C20.4434 6.66486 20.3692 6.4853 20.2373 6.3529C20.1053 6.22051 19.9264 6.14613 19.7397 6.14613ZM9.18555 5.44017C9.18555 5.25293 9.25968 5.07337 9.39163 4.94097C9.52358 4.80858 9.70255 4.7342 9.88916 4.7342H14.1108C14.2975 4.7342 14.4764 4.80858 14.6084 4.94097C14.7403 5.07337 14.8145 5.25293 14.8145 5.44017V6.14613H9.18555V5.44017ZM17.6289 20.2655H6.37109V7.55806H17.6289V20.2655ZM10.5928 11.0879V16.7356C10.5928 16.9229 10.5186 17.1024 10.3867 17.2348C10.2547 17.3672 10.0758 17.4416 9.88916 17.4416C9.70255 17.4416 9.52358 17.3672 9.39163 17.2348C9.25968 17.1024 9.18555 16.9229 9.18555 16.7356V11.0879C9.18555 10.9007 9.25968 10.7211 9.39163 10.5887C9.52358 10.4563 9.70255 10.3819 9.88916 10.3819C10.0758 10.3819 10.2547 10.4563 10.3867 10.5887C10.5186 10.7211 10.5928 10.9007 10.5928 11.0879ZM14.8145 11.0879V16.7356C14.8145 16.9229 14.7403 17.1024 14.6084 17.2348C14.4764 17.3672 14.2975 17.4416 14.1108 17.4416C13.9242 17.4416 13.7453 17.3672 13.6133 17.2348C13.4814 17.1024 13.4072 16.9229 13.4072 16.7356V11.0879C13.4072 10.9007 13.4814 10.7211 13.6133 10.5887C13.7453 10.4563 13.9242 10.3819 14.1108 10.3819C14.2975 10.3819 14.4764 10.4563 14.6084 10.5887C14.7403 10.7211 14.8145 10.9007 14.8145 11.0879Z" fill="#FF2D38"/>
</svg>