<svg xmlns="http://www.w3.org/2000/svg" width="17" height="17" viewBox="0 0 17 17" fill="none">
  <path d="M14.2669 3.79437H11.7553V3.29207C11.7553 2.89241 11.5966 2.50912 11.314 2.22652C11.0314 1.94392 10.6481 1.78516 10.2484 1.78516H7.2346C6.83495 1.78516 6.45166 1.94392 6.16906 2.22652C5.88646 2.50912 5.72769 2.89241 5.72769 3.29207V3.79437H3.21617C3.08295 3.79437 2.95519 3.84729 2.86099 3.94149C2.76679 4.03569 2.71387 4.16346 2.71387 4.29668C2.71387 4.4299 2.76679 4.55766 2.86099 4.65186C2.95519 4.74606 3.08295 4.79898 3.21617 4.79898H3.71848V13.8405C3.71848 14.1069 3.82432 14.3624 4.01272 14.5508C4.20112 14.7392 4.45664 14.8451 4.72308 14.8451H12.7599C13.0264 14.8451 13.2819 14.7392 13.4703 14.5508C13.6587 14.3624 13.7646 14.1069 13.7646 13.8405V4.79898H14.2669C14.4001 4.79898 14.5278 4.74606 14.622 4.65186C14.7162 4.55766 14.7692 4.4299 14.7692 4.29668C14.7692 4.16346 14.7162 4.03569 14.622 3.94149C14.5278 3.84729 14.4001 3.79437 14.2669 3.79437ZM6.7323 3.29207C6.7323 3.15885 6.78522 3.03109 6.87942 2.93689C6.97362 2.84269 7.10138 2.78976 7.2346 2.78976H10.2484C10.3816 2.78976 10.5094 2.84269 10.6036 2.93689C10.6978 3.03109 10.7507 3.15885 10.7507 3.29207V3.79437H6.7323V3.29207ZM12.7599 13.8405H4.72308V4.79898H12.7599V13.8405ZM7.73691 7.3105V11.3289C7.73691 11.4622 7.68399 11.5899 7.58979 11.6841C7.49559 11.7783 7.36782 11.8312 7.2346 11.8312C7.10138 11.8312 6.97362 11.7783 6.87942 11.6841C6.78522 11.5899 6.7323 11.4622 6.7323 11.3289V7.3105C6.7323 7.17728 6.78522 7.04952 6.87942 6.95532C6.97362 6.86112 7.10138 6.8082 7.2346 6.8082C7.36782 6.8082 7.49559 6.86112 7.58979 6.95532C7.68399 7.04952 7.73691 7.17728 7.73691 7.3105ZM10.7507 7.3105V11.3289C10.7507 11.4622 10.6978 11.5899 10.6036 11.6841C10.5094 11.7783 10.3816 11.8312 10.2484 11.8312C10.1152 11.8312 9.98745 11.7783 9.89325 11.6841C9.79905 11.5899 9.74612 11.4622 9.74612 11.3289V7.3105C9.74612 7.17728 9.79905 7.04952 9.89325 6.95532C9.98745 6.86112 10.1152 6.8082 10.2484 6.8082C10.3816 6.8082 10.5094 6.86112 10.6036 6.95532C10.6978 7.04952 10.7507 7.17728 10.7507 7.3105Z" fill="#757575"/>
</svg>