<svg xmlns="http://www.w3.org/2000/svg" width="48" height="49" viewBox="0 0 48 49" fill="none">
  <path d="M24 8.5C26.1217 8.5 28.1566 9.34285 29.6569 10.8431C31.1571 12.3434 32 14.3783 32 16.5C32 18.6217 31.1571 20.6566 29.6569 22.1569C28.1566 23.6571 26.1217 24.5 24 24.5C21.8783 24.5 19.8434 23.6571 18.3431 22.1569C16.8429 20.6566 16 18.6217 16 16.5C16 14.3783 16.8429 12.3434 18.3431 10.8431C19.8434 9.34285 21.8783 8.5 24 8.5ZM24 28.5C32.84 28.5 40 32.08 40 36.5V40.5H8V36.5C8 32.08 15.16 28.5 24 28.5Z" fill="#D1D1D1"/>
</svg>