<svg xmlns="http://www.w3.org/2000/svg" width="18" height="18" viewBox="0 0 18 18" fill="none">
<path d="M3.79124 2.43335C3.74185 2.37767 3.68189 2.33234 3.61484 2.3C3.5478 2.26766 3.475 2.24895 3.40068 2.24495C3.32635 2.24095 3.25196 2.25175 3.18184 2.27671C3.11171 2.30167 3.04724 2.3403 2.99215 2.39036C2.93706 2.44042 2.89246 2.50092 2.86093 2.56835C2.82939 2.63577 2.81155 2.70879 2.80845 2.78316C2.80534 2.85753 2.81703 2.93178 2.84282 3.0016C2.86862 3.07142 2.90802 3.13543 2.95874 3.18991L4.31156 4.67843C1.75781 6.24569 0.659525 8.66163 0.611009 8.77132C0.579026 8.84326 0.5625 8.92111 0.5625 8.99983C0.5625 9.07856 0.579026 9.15641 0.611009 9.22835C0.635618 9.2839 1.23117 10.6044 2.55515 11.9284C4.31929 13.6918 6.54749 14.6241 8.99999 14.6241C10.2604 14.6313 11.5081 14.3718 12.6612 13.8626L14.208 15.5649C14.2574 15.6206 14.3174 15.6659 14.3844 15.6983C14.4515 15.7306 14.5243 15.7493 14.5986 15.7533C14.6729 15.7573 14.7473 15.7465 14.8174 15.7216C14.8876 15.6966 14.952 15.658 15.0071 15.6079C15.0622 15.5578 15.1068 15.4973 15.1384 15.4299C15.1699 15.3625 15.1877 15.2895 15.1908 15.2151C15.1939 15.1407 15.1823 15.0665 15.1565 14.9967C15.1307 14.9268 15.0913 14.8628 15.0405 14.8083L3.79124 2.43335ZM7.11913 7.76585L10.0491 10.9897C9.60784 11.2218 9.10203 11.3008 8.61105 11.2143C8.12006 11.1278 7.67172 10.8806 7.33641 10.5117C7.00111 10.1428 6.79783 9.6729 6.7585 9.17591C6.71918 8.67892 6.84603 8.18294 7.11913 7.76585ZM8.99999 13.4991C6.83577 13.4991 4.94507 12.7123 3.37992 11.1612C2.73748 10.5228 2.19109 9.7945 1.75781 8.99913C2.08757 8.38108 3.14015 6.6514 5.0871 5.5271L6.35273 6.91577C5.86275 7.54331 5.61039 8.32387 5.64027 9.11949C5.67015 9.9151 5.98035 10.6745 6.51602 11.2636C7.05169 11.8526 7.77835 12.2333 8.56756 12.3383C9.35678 12.4434 10.1577 12.266 10.8288 11.8376L11.8645 12.9767C10.9505 13.3274 9.97901 13.5046 8.99999 13.4991ZM9.42187 6.78921C9.2753 6.76124 9.14584 6.67619 9.06197 6.55276C8.97811 6.42934 8.94671 6.27766 8.97468 6.13108C9.00265 5.98451 9.08771 5.85505 9.21113 5.77119C9.33455 5.68733 9.48623 5.65593 9.63281 5.6839C10.3497 5.82288 11.0025 6.1899 11.4938 6.73021C11.985 7.27052 12.2885 7.95516 12.3588 8.68202C12.3727 8.83055 12.327 8.97852 12.2318 9.09337C12.1366 9.20822 11.9997 9.28055 11.8512 9.29444C11.8336 9.29548 11.816 9.29548 11.7984 9.29444C11.6578 9.29505 11.5221 9.24298 11.418 9.1485C11.3139 9.05401 11.2489 8.92397 11.2359 8.78398C11.1886 8.3005 10.9865 7.84522 10.6596 7.48583C10.3328 7.12643 9.89869 6.88212 9.42187 6.78921ZM17.3869 9.22835C17.3573 9.29444 16.6451 10.8716 15.0412 12.308C14.9864 12.3587 14.9221 12.3979 14.852 12.4235C14.7819 12.449 14.7074 12.4603 14.6329 12.4568C14.5583 12.4533 14.4852 12.435 14.4178 12.4029C14.3505 12.3708 14.2901 12.3257 14.2403 12.2701C14.1906 12.2145 14.1524 12.1496 14.1279 12.079C14.1035 12.0085 14.0934 11.9339 14.0981 11.8594C14.1028 11.7849 14.1223 11.7121 14.1554 11.6453C14.1885 11.5784 14.2346 11.5188 14.291 11.4699C15.0778 10.763 15.7388 9.92752 16.2457 8.99913C15.8115 8.20304 15.2639 7.47425 14.6201 6.83562C13.0549 5.28593 11.1642 4.49913 8.99999 4.49913C8.54399 4.49858 8.0887 4.5355 7.63874 4.60952C7.56557 4.62246 7.49056 4.62078 7.41804 4.60456C7.34553 4.58835 7.27694 4.55792 7.21625 4.51505C7.15556 4.47218 7.10396 4.41771 7.06444 4.35478C7.02492 4.29186 6.99826 4.22172 6.986 4.14843C6.97374 4.07514 6.97612 4.00015 6.993 3.92779C7.00989 3.85543 7.04095 3.78713 7.08438 3.72683C7.12781 3.66654 7.18276 3.61545 7.24605 3.57652C7.30934 3.53758 7.37972 3.51157 7.45312 3.49999C7.96441 3.41557 8.48178 3.37347 8.99999 3.37413C11.4525 3.37413 13.6807 4.30648 15.4448 6.07062C16.7688 7.3946 17.3644 8.71577 17.389 8.77132C17.421 8.84326 17.4375 8.92111 17.4375 8.99983C17.4375 9.07856 17.421 9.15641 17.389 9.22835H17.3869Z" fill="#838383"/>
</svg>